custom-analysis
version=1
nRows=4
nColumns=146
inDegrees=no

This file contains tibia displacement and acting force.

Units are S.I. units (seconds, meters, Newtons, ...)
Angles are in degrees.

endheader
time	APT	SIT	knee_angle	aACL_R_force	pACL_R_force	aPCL_R_force	pPCL_R_force	aMCL_R_force	mMCL_R_force	pMCL_R_force	aLCL_R_force	mLCL_R_force	pLCL_R_force	aPCL_L_force	pPCL_L_force	aMCL_L_force	aLCL_L_force	aACL_R_length	pACL_R_length	aPCL_R_length	pPCL_R_length	aMCL_R_length	mMCL_R_length	pMCL_R_length	aLCL_R_length	mLCL_R_length	pLCL_R_length	aPCL_L_length	pPCL_L_length	aMCL_L_length	aLCL_L_length	aACL_R_strain	pACL_R_strain	aPCL_R_strain	pPCL_R_strain	aMCL_R_strain	mMCL_R_strain	pMCL_R_strain	aLCL_R_strain	mLCL_R_strain	pLCL_R_strain	aPCL_L_strain	pPCL_L_strain	aMCL_L_strain	aLCL_L_strain	femur_lat_meniscii_l.femur_lat_l.force.X	femur_lat_meniscii_l.femur_lat_l.force.Y	femur_lat_meniscii_l.femur_lat_l.force.Z	femur_lat_meniscii_l.femur_lat_l.torque.X	femur_lat_meniscii_l.femur_lat_l.torque.Y	femur_lat_meniscii_l.femur_lat_l.torque.Z	femur_lat_meniscii_l.meniscus_lat_l.force.X	femur_lat_meniscii_l.meniscus_lat_l.force.Y	femur_lat_meniscii_l.meniscus_lat_l.force.Z	femur_lat_meniscii_l.meniscus_lat_l.torque.X	femur_lat_meniscii_l.meniscus_lat_l.torque.Y	femur_lat_meniscii_l.meniscus_lat_l.torque.Z	femur_med_meniscii_l.femur_med_l.force.X	femur_med_meniscii_l.femur_med_l.force.Y	femur_med_meniscii_l.femur_med_l.force.Z	femur_med_meniscii_l.femur_med_l.torque.X	femur_med_meniscii_l.femur_med_l.torque.Y	femur_med_meniscii_l.femur_med_l.torque.Z	femur_med_meniscii_l.meniscus_med_l.force.X	femur_med_meniscii_l.meniscus_med_l.force.Y	femur_med_meniscii_l.meniscus_med_l.force.Z	femur_med_meniscii_l.meniscus_med_l.torque.X	femur_med_meniscii_l.meniscus_med_l.torque.Y	femur_med_meniscii_l.meniscus_med_l.torque.Z	femur_lat_meniscii_r.femur_lat_r.force.X	femur_lat_meniscii_r.femur_lat_r.force.Y	femur_lat_meniscii_r.femur_lat_r.force.Z	femur_lat_meniscii_r.femur_lat_r.torque.X	femur_lat_meniscii_r.femur_lat_r.torque.Y	femur_lat_meniscii_r.femur_lat_r.torque.Z	femur_lat_meniscii_r.meniscus_lat_r.force.X	femur_lat_meniscii_r.meniscus_lat_r.force.Y	femur_lat_meniscii_r.meniscus_lat_r.force.Z	femur_lat_meniscii_r.meniscus_lat_r.torque.X	femur_lat_meniscii_r.meniscus_lat_r.torque.Y	femur_lat_meniscii_r.meniscus_lat_r.torque.Z	femur_med_meniscii_r.femur_med_r.force.X	femur_med_meniscii_r.femur_med_r.force.Y	femur_med_meniscii_r.femur_med_r.force.Z	femur_med_meniscii_r.femur_med_r.torque.X	femur_med_meniscii_r.femur_med_r.torque.Y	femur_med_meniscii_r.femur_med_r.torque.Z	femur_med_meniscii_r.meniscus_med_r.force.X	femur_med_meniscii_r.meniscus_med_r.force.Y	femur_med_meniscii_r.meniscus_med_r.force.Z	femur_med_meniscii_r.meniscus_med_r.torque.X	femur_med_meniscii_r.meniscus_med_r.torque.Y	femur_med_meniscii_r.meniscus_med_r.torque.Z	femur_med_tibia_l.tibia_upper_l.force.X	femur_med_tibia_l.tibia_upper_l.force.Y	femur_med_tibia_l.tibia_upper_l.force.Z	femur_med_tibia_l.tibia_upper_l.torque.X	femur_med_tibia_l.tibia_upper_l.torque.Y	femur_med_tibia_l.tibia_upper_l.torque.Z	femur_med_tibia_l.femur_med_l.force.X	femur_med_tibia_l.femur_med_l.force.Y	femur_med_tibia_l.femur_med_l.force.Z	femur_med_tibia_l.femur_med_l.torque.X	femur_med_tibia_l.femur_med_l.torque.Y	femur_med_tibia_l.femur_med_l.torque.Z	femur_lat_tibia_l.tibia_upper_l.force.X	femur_lat_tibia_l.tibia_upper_l.force.Y	femur_lat_tibia_l.tibia_upper_l.force.Z	femur_lat_tibia_l.tibia_upper_l.torque.X	femur_lat_tibia_l.tibia_upper_l.torque.Y	femur_lat_tibia_l.tibia_upper_l.torque.Z	femur_lat_tibia_l.femur_lat_l.force.X	femur_lat_tibia_l.femur_lat_l.force.Y	femur_lat_tibia_l.femur_lat_l.force.Z	femur_lat_tibia_l.femur_lat_l.torque.X	femur_lat_tibia_l.femur_lat_l.torque.Y	femur_lat_tibia_l.femur_lat_l.torque.Z	femur_med_tibia_r.tibia_upper_r.force.X	femur_med_tibia_r.tibia_upper_r.force.Y	femur_med_tibia_r.tibia_upper_r.force.Z	femur_med_tibia_r.tibia_upper_r.torque.X	femur_med_tibia_r.tibia_upper_r.torque.Y	femur_med_tibia_r.tibia_upper_r.torque.Z	femur_med_tibia_r.femur_med_r.force.X	femur_med_tibia_r.femur_med_r.force.Y	femur_med_tibia_r.femur_med_r.force.Z	femur_med_tibia_r.femur_med_r.torque.X	femur_med_tibia_r.femur_med_r.torque.Y	femur_med_tibia_r.femur_med_r.torque.Z	femur_lat_tibia_r.tibia_upper_r.force.X	femur_lat_tibia_r.tibia_upper_r.force.Y	femur_lat_tibia_r.tibia_upper_r.force.Z	femur_lat_tibia_r.tibia_upper_r.torque.X	femur_lat_tibia_r.tibia_upper_r.torque.Y	femur_lat_tibia_r.tibia_upper_r.torque.Z	femur_lat_tibia_r.femur_lat_r.force.X	femur_lat_tibia_r.femur_lat_r.force.Y	femur_lat_tibia_r.femur_lat_r.force.Z	femur_lat_tibia_r.femur_lat_r.torque.X	femur_lat_tibia_r.femur_lat_r.torque.Y	femur_lat_tibia_r.femur_lat_r.torque.Z	femur_lat_meniscii_force_r	femur_med_meniscii_force_r	femur_lat_tibia_force_r	femur_med_tibia_force_r
      0.11865304	      0.00458844	      0.00123894	     89.99998384	     18.15954659	      4.66800237	    851.92377041	    432.74649382	     10.65844243	      0.00000000	      0.00000000	      0.00000000	      0.00000000	      0.00000000	      0.00000000	      0.00000000	      0.00000001	      0.00000000	      0.03242010	      0.02558059	      0.03662990	      0.03304949	      0.06183604	      0.05974116	      0.05630665	      0.04927033	      0.04364475	      0.03852228	      0.01525851	      0.01651186	      0.06550154	      0.04489616	      0.04562429	      0.02082670	      0.17798819	      0.10578528	      0.03013704	     -0.00087538	     -0.00742751	     -0.11981434	     -0.22503839	     -0.26403722	      0.00000079	     -0.32847694	      0.00000060	     -0.00000086	      2.76307435	     50.99597937	     -9.56042239	      5.21997485	     -0.02578839	      1.48581788	     -2.76307435	    -50.99597937	      9.56042239	     -1.74637766	      0.02558040	     -0.48301696	     -3.31599387	     20.97615968	     -3.40468921	      0.94473225	     -0.02138609	     -1.00501789	      3.31599387	    -20.97615968	      3.40468921	      0.28075727	      0.00368718	     -0.29758878	    190.60240553	    -25.97874557	     29.85413347	    -11.43329304	      4.61065522	     77.54594603	   -190.60240553	     25.97874557	    -29.85413347	     -0.59735664	     -6.01463247	     -1.95851681	     58.50841677	    -49.49439363	     -9.66786964	      2.99112023	     -1.09731332	     23.62252669	    -58.50841677	     49.49439363	      9.66786964	      0.73862410	      1.20684348	     -1.61144101	      0.00000000	      0.00000000	      0.00000000	      0.00000000	      0.00000000	      0.00000000	      0.00000000	      0.00000000	      0.00000000	      0.00000000	      0.00000000	      0.00000000	      0.00000000	      0.00000000	      0.00000000	      0.00000000	      0.00000000	      0.00000000	      0.00000000	      0.00000000	      0.00000000	      0.00000000	      0.00000000	      0.00000000	   -665.64308120	     53.62543106	    145.69950059	      0.03923043	     13.91261948	     -4.89761140	    665.64308120	    -53.62543106	   -145.69950059	     58.15703098	    -11.64160719	    269.93733075	    -12.57370140	     -0.90453066	     -3.56968375	      0.04789572	     -0.44802955	     -0.05509598	     12.57370140	      0.90453066	      3.56968375	     -1.47489742	      0.30948227	      5.11661258	    194.66751527	     77.24245942	     13.10186188	    683.50913884
      0.12062644	      0.00461086	      0.00123887	     89.99998384	     18.52380475	      4.89528118	    849.97415001	    430.97546483	     10.79541379	      0.00000000	      0.00000000	      0.00000000	      0.00000000	      0.00000000	      0.00000000	      0.00000000	      0.00000001	      0.00000000	      0.03243285	      0.02558748	      0.03661924	      0.03303880	      0.06184869	      0.05975150	      0.05631474	      0.04925292	      0.04362631	      0.03850146	      0.01525851	      0.01651186	      0.06550154	      0.04489616	      0.04603540	      0.02110153	      0.17764554	      0.10542760	      0.03034778	     -0.00070248	     -0.00728502	     -0.12012526	     -0.22536594	     -0.26443501	      0.00000079	     -0.32847694	      0.00000060	     -0.00000086	      2.76307435	     50.99597937	     -9.56042239	      5.21997485	     -0.02578839	      1.48581788	     -2.76307435	    -50.99597937	      9.56042239	     -1.74637766	      0.02558040	     -0.48301696	     -3.31599387	     20.97615968	     -3.40468921	      0.94473225	     -0.02138609	     -1.00501789	      3.31599387	    -20.97615968	      3.40468921	      0.28075727	      0.00368718	     -0.29758878	    191.85597431	    -25.07369577	     29.85226934	    -11.45929862	      4.63441952	     78.04719821	   -191.85597431	     25.07369577	    -29.85226934	     -0.56929525	     -6.04643364	     -1.92725040	     58.97682071	    -49.82587344	    -10.21652149	      3.20358849	     -1.10958615	     23.81151827	    -58.97682071	     49.82587344	     10.21652149	      0.74401528	      1.23216264	     -1.62102617	      0.00000000	      0.00000000	      0.00000000	      0.00000000	      0.00000000	      0.00000000	      0.00000000	      0.00000000	      0.00000000	      0.00000000	      0.00000000	      0.00000000	      0.00000000	      0.00000000	      0.00000000	      0.00000000	      0.00000000	      0.00000000	      0.00000000	      0.00000000	      0.00000000	      0.00000000	      0.00000000	      0.00000000	   -659.33519587	     53.03566314	    147.11304687	      0.02972895	     13.87527605	     -4.83000718	    659.33519587	    -53.03566314	   -147.11304687	     58.73657795	    -11.56070474	    267.37599118	    -13.89690677	     -1.00753350	     -3.87116824	      0.05253191	     -0.49232839	     -0.06034476	     13.89690677	      1.00753350	      3.87116824	     -1.60004564	      0.34100231	      5.65506935	    195.77681958	     77.87978144	     14.46115781	    677.62668973
      0.12259985	      0.00463269	      0.00123898	     89.99998384	     18.39118702	      4.51899044	    848.05435315	    429.50952249	     10.97753965	      0.00000000	      0.00000000	      0.00000000	      0.00000000	      0.00000000	      0.00000000	      0.00000000	      0.00000001	      0.00000000	      0.03244569	      0.02559467	      0.03660817	      0.03302780	      0.06186135	      0.05976193	      0.05632291	      0.04923420	      0.04360653	      0.03847935	      0.01525851	      0.01651186	      0.06550154	      0.04489616	      0.04644951	      0.02138877	      0.17728941	      0.10505948	      0.03055883	     -0.00052806	     -0.00714094	     -0.12045974	     -0.22571714	     -0.26485741	      0.00000079	     -0.32847694	      0.00000060	     -0.00000086	      2.76307435	     50.99597937	     -9.56042239	      5.21997485	     -0.02578839	      1.48581788	     -2.76307435	    -50.99597937	      9.56042239	     -1.74637766	      0.02558040	     -0.48301696	     -3.31599387	     20.97615968	     -3.40468921	      0.94473225	     -0.02138609	     -1.00501789	      3.31599387	    -20.97615968	      3.40468921	      0.28075727	      0.00368718	     -0.29758878	    193.66458706	    -24.63047514	     31.56677213	    -12.16293556	      4.69884491	     78.78191892	   -193.66458706	     24.63047514	    -31.56677213	     -0.55241576	     -6.17036110	     -1.92042956	     59.41150398	    -50.15328478	     -9.76728843	      3.02050924	     -1.11261627	     23.98701878	    -59.41150398	     50.15328478	      9.76728843	      0.74515572	      1.21951915	     -1.63052859	      0.00000000	      0.00000000	      0.00000000	      0.00000000	      0.00000000	      0.00000000	      0.00000000	      0.00000000	      0.00000000	      0.00000000	      0.00000000	      0.00000000	      0.00000000	      0.00000000	      0.00000000	      0.00000000	      0.00000000	      0.00000000	      0.00000000	      0.00000000	      0.00000000	      0.00000000	      0.00000000	      0.00000000	   -654.77321656	     51.55138561	    142.01537684	      0.03417962	     13.59239107	     -4.73561862	    654.77321656	    -51.55138561	   -142.01537684	     56.69673453	    -11.42765152	    265.51222347	    -15.33851202	     -1.13927482	     -4.34914267	      0.05914030	     -0.54684605	     -0.06524406	     15.33851202	      1.13927482	      4.34914267	     -1.79777632	      0.37722585	      6.24148056	    197.76019238	     78.36120662	     15.98383371	    671.97758723
      0.12412687	      0.00464912	      0.00123918	     89.99998384	     18.85927179	      4.92811543	    846.52336826	    428.12215811	     11.11835058	      0.00000000	      0.00000000	      0.00000000	      0.00000000	      0.00000000	      0.00000000	      0.00000000	      0.00000001	      0.00000000	      0.03245468	      0.02559927	      0.03659977	      0.03301960	      0.06187141	      0.05977036	      0.05632971	      0.04921925	      0.04359081	      0.03846194	      0.01525851	      0.01651186	      0.06550154	      0.04489616	      0.04673953	      0.02157211	      0.17701931	      0.10478507	      0.03072639	     -0.00038702	     -0.00702101	     -0.12072682	     -0.22599624	     -0.26519007	      0.00000079	     -0.32847694	      0.00000060	     -0.00000086	      2.76307435	     50.99597937	     -9.56042239	      5.21997485	     -0.02578839	      1.48581788	     -2.76307435	    -50.99597937	      9.56042239	     -1.74637766	      0.02558040	     -0.48301696	     -3.31599387	     20.97615968	     -3.40468921	      0.94473225	     -0.02138609	     -1.00501789	      3.31599387	    -20.97615968	      3.40468921	      0.28075727	      0.00368718	     -0.29758878	    195.26778148	    -24.59569580	     30.04301606	    -11.54581509	      4.71699117	     79.43604867	   -195.26778148	     24.59569580	    -30.04301606	     -0.56011970	     -6.15322615	     -1.92805730	     59.59789583	    -50.35327868	    -10.48093004	      3.30077388	     -1.12183951	     24.06286495	    -59.59789583	     50.35327868	     10.48093004	      0.74936125	      1.24755543	     -1.63648465	      0.00000000	      0.00000000	      0.00000000	      0.00000000	      0.00000000	      0.00000000	      0.00000000	      0.00000000	      0.00000000	      0.00000000	      0.00000000	      0.00000000	      0.00000000	      0.00000000	      0.00000000	      0.00000000	      0.00000000	      0.00000000	      0.00000000	      0.00000000	      0.00000000	      0.00000000	      0.00000000	      0.00000000	   -649.30450465	     51.17060438	    145.28618565	      0.01887813	     13.64374785	     -4.68471383	    649.30450465	    -51.17060438	   -145.28618565	     58.02476114	    -11.38139647	    263.29313130	    -16.70374632	     -1.26366770	     -4.60930899	      0.06400744	     -0.59050153	     -0.06994457	     16.70374632	      1.26366770	      4.60930899	     -1.90654097	      0.40910193	      6.79686212	    199.09052602	     78.72237138	     17.37405326	    667.32514282
